<?xml version="1.0" encoding="UTF-8"?>
<svg xmlns="http://www.w3.org/2000/svg" version="1.1" viewBox="0 0 1920 1080">
  <defs>
    <style>
      .cls-1 {
        fill: #f7f3eb;
      }

      .cls-2 {
        fill: #fbf8ef;
      }
    </style>
  </defs>
  <!-- Generator: Adobe Illustrator 28.7.1, SVG Export Plug-In . SVG Version: 1.2.0 Build 142)  -->
  <g>
    <g id="Warstwa_1">
      <rect class="cls-2" width="1920" height="1080"/>
      <g id="Warstwa_1-2" data-name="Warstwa_1">
        <g>
          <g>
            <path class="cls-1" d="M1018.12,505.2c3.5.99,5.26,4.89,3.71,8.18-2.3,4.89-5.39,9.31-9.26,13.3-5.47,5.67-12.28,10.05-20.34,13.2-8.09,3.13-17.16,4.69-27.27,4.69-14.34,0-26.71-3.18-37.09-9.55-10.38-6.36-18.37-15.29-23.95-26.77-3.29-6.75-5.61-14.17-6.96-22.25-.59-3.55,2.2-6.78,5.8-6.78h10.81c2.88,0,5.32,2.11,5.77,4.96.94,5.97,2.6,11.3,4.95,16,3.91,7.81,9.35,13.7,16.33,17.75,6.98,4.05,15.1,6.06,24.34,6.06,6.03,0,11.47-.84,16.36-2.57,4.89-1.7,9.1-4.3,12.64-7.76,2.5-2.42,4.59-5.26,6.3-8.53,1.3-2.5,4.11-3.82,6.83-3.05l11.04,3.11h0Z"/>
            <path class="cls-1" d="M990.12,450.35c-3.64,0-6.39-3.29-5.78-6.88.9-5.33,2.68-10.42,5.33-15.3,3.74-6.93,9.12-12.99,16.03-18.2,6.95-5.19,15.26-9.14,24.99-11.87,13.81-3.87,26.58-4.14,38.29-.81,11.71,3.33,21.81,9.77,30.28,19.31,4.99,5.61,9.22,12.13,12.7,19.55,1.53,3.26-.3,7.12-3.76,8.09l-10.41,2.92c-2.77.78-5.69-.6-6.89-3.22-2.51-5.49-5.55-10.18-9.08-14.07-5.87-6.47-12.7-10.67-20.51-12.69-7.81-2.01-16.17-1.76-25.07.73-5.81,1.63-10.82,3.9-15.06,6.88-4.24,2.96-7.6,6.59-10.08,10.88-1.76,3.01-3.01,6.31-3.76,9.91-.58,2.76-2.93,4.79-5.75,4.78l-11.47-.02Z"/>
            <path class="cls-1" d="M930.95,406.33c-3.68-9.52-8.63-17.16-14.82-22.94-6.22-5.78-13.09-9.96-20.68-12.56-7.56-2.59-15.21-3.88-22.97-3.88-13.45,0-25.2,3.29-35.25,9.85-10.05,6.56-17.89,15.68-23.47,27.35-5.58,11.67-8.4,25.12-8.4,40.38v.06c0,3.17,2.6,5.77,5.77,5.77h119.49c3.24,0,5.86-2.62,5.86-5.86v-3.07c0-13.9-1.84-25.62-5.52-35.11h0ZM830.44,431.34c-1.11,0-2.02-.97-1.91-2.08.64-6.15,2.31-11.97,5.07-17.52,3.55-7.17,8.63-13,15.27-17.5,6.61-4.49,14.48-6.73,23.61-6.73,8.26,0,15.46,1.9,21.57,5.72,6.11,3.8,10.83,9.01,14.15,15.6,3.09,6.1,4.73,12.93,4.97,20.54.03,1.07-.85,1.95-1.91,1.95h-80.82Z"/>
          </g>
          <g>
            <path class="cls-1" d="M1181.03,372.03c-6.94,0-12.56-5.62-12.56-12.56v-57.99c0-29.88-24.31-54.19-54.19-54.19h-57.99c-6.94,0-12.56-5.62-12.56-12.56s5.62-12.56,12.56-12.56h57.99c43.73,0,79.31,35.58,79.31,79.31v57.99c0,6.94-5.62,12.56-12.56,12.56Z"/>
            <path class="cls-1" d="M738.97,372.03c-6.94,0-12.56-5.62-12.56-12.56v-57.99c0-43.73,35.58-79.31,79.31-79.31h57.99c6.94,0,12.56,5.62,12.56,12.56s-5.62,12.56-12.56,12.56h-57.99c-29.88,0-54.19,24.31-54.19,54.19v57.99c0,6.94-5.62,12.56-12.56,12.56h0Z"/>
            <path class="cls-1" d="M863.71,689.35h-57.99c-43.73,0-79.31-35.58-79.31-79.31v-57.99c0-6.94,5.62-12.56,12.56-12.56s12.56,5.62,12.56,12.56v57.99c0,29.88,24.31,54.19,54.19,54.19h57.99c6.94,0,12.56,5.62,12.56,12.56s-5.62,12.56-12.56,12.56h0Z"/>
            <path class="cls-1" d="M1114.28,689.35h-57.99c-6.94,0-12.56-5.62-12.56-12.56s5.62-12.56,12.56-12.56h57.99c29.88,0,54.19-24.31,54.19-54.19v-57.99c0-6.94,5.62-12.56,12.56-12.56s12.56,5.62,12.56,12.56v57.99c0,43.73-35.58,79.31-79.31,79.31h0Z"/>
          </g>
        </g>
      </g>
    </g>
  </g>
</svg>