<?xml version="1.0" encoding="UTF-8"?>
<svg xmlns="http://www.w3.org/2000/svg" version="1.1" viewBox="0 0 1500 1500">
  <defs>
    <style>
      .cls-1 {
        fill: #111;
      }

      .cls-2 {
        fill: #ffce01;
      }
    </style>
  </defs>
  <!-- Generator: Adobe Illustrator 28.7.1, SVG Export Plug-In . SVG Version: 1.2.0 Build 142)  -->
  <g>
    <g id="Warstwa_1">
      <rect class="cls-2" x="42.5" y="42.5" width="1415" height="1415" rx="256.7" ry="256.7"/>
      <g id="Warstwa_1-2" data-name="Warstwa_1">
        <g>
          <g>
            <path class="cls-1" d="M902,879.3c9.2,2.6,13.8,12.8,9.7,21.4-6,12.8-14.1,24.3-24.2,34.8-14.3,14.8-32.1,26.3-53.2,34.5-21.2,8.2-44.9,12.3-71.3,12.3-37.5,0-69.8-8.3-97-25s-48-40-62.6-70c-8.6-17.6-14.7-37.1-18.2-58.2-1.5-9.3,5.8-17.7,15.2-17.7h28.3c7.5,0,13.9,5.5,15.1,13,2.5,15.6,6.8,29.5,12.9,41.8,10.2,20.4,24.5,35.8,42.7,46.4,18.2,10.6,39.5,15.8,63.6,15.8s30-2.2,42.8-6.7c12.8-4.4,23.8-11.2,33.1-20.3,6.5-6.3,12-13.8,16.5-22.3,3.4-6.5,10.7-10,17.8-8l28.9,8.1h0Z"/>
            <path class="cls-1" d="M828.7,735.9c-9.5,0-16.7-8.6-15.1-18,2.4-13.9,7-27.2,13.9-40,9.8-18.1,23.8-34,41.9-47.6,18.2-13.6,39.9-23.9,65.3-31,36.1-10.1,69.5-10.8,100.1-2.1,30.6,8.7,57,25.6,79.2,50.5,13,14.7,24.1,31.7,33.2,51.1,4,8.5-.8,18.6-9.8,21.2l-27.2,7.6c-7.3,2-14.9-1.6-18-8.4-6.6-14.4-14.5-26.6-23.8-36.8-15.4-16.9-33.2-27.9-53.6-33.2-20.4-5.3-42.3-4.6-65.5,1.9-15.2,4.2-28.3,10.2-39.4,18-11.1,7.7-19.9,17.2-26.4,28.5-4.6,7.9-7.9,16.5-9.8,25.9-1.5,7.2-7.7,12.5-15,12.5h-30Z"/>
            <path class="cls-1" d="M674.1,620.8c-9.6-24.9-22.6-44.9-38.8-60-16.3-15.1-34.2-26-54.1-32.8-19.8-6.8-39.8-10.1-60.1-10.1-35.2,0-65.9,8.6-92.2,25.8-26.3,17.2-46.8,41-61.4,71.5-14.6,30.5-22,65.7-22,105.6v.2c0,8.3,6.8,15.1,15.1,15.1h312.4c8.5,0,15.3-6.9,15.3-15.3v-8c0-36.3-4.8-67-14.4-91.8h0ZM411.2,686.1c-2.9,0-5.3-2.5-5-5.4,1.7-16.1,6-31.3,13.3-45.8,9.3-18.8,22.6-34,39.9-45.8,17.3-11.7,37.9-17.6,61.7-17.6s40.4,5,56.4,15c16,9.9,28.3,23.6,37,40.8,8.1,15.9,12.4,33.8,13,53.7,0,2.8-2.2,5.1-5,5.1h-211.3Z"/>
          </g>
          <g>
            <path class="cls-1" d="M1327.9,531.1c-18.1,0-32.8-14.7-32.8-32.8v-151.6c0-78.1-63.6-141.7-141.7-141.7h-151.6c-18.1,0-32.8-14.7-32.8-32.8s14.7-32.8,32.8-32.8h151.6c114.3,0,207.4,93,207.4,207.4v151.6c0,18.1-14.7,32.8-32.8,32.8Z"/>
            <path class="cls-1" d="M172.1,531.1c-18.1,0-32.8-14.7-32.8-32.8v-151.6c0-114.3,93-207.4,207.4-207.4h151.6c18.1,0,32.8,14.7,32.8,32.8s-14.7,32.8-32.8,32.8h-151.6c-78.1,0-141.7,63.6-141.7,141.7v151.6c0,18.1-14.7,32.8-32.8,32.8h0Z"/>
            <path class="cls-1" d="M498.2,1360.7h-151.6c-114.3,0-207.4-93-207.4-207.4v-151.6c0-18.1,14.7-32.8,32.8-32.8s32.8,14.7,32.8,32.8v151.6c0,78.1,63.6,141.7,141.7,141.7h151.6c18.1,0,32.8,14.7,32.8,32.8s-14.7,32.8-32.8,32.8h0Z"/>
            <path class="cls-1" d="M1153.4,1360.7h-151.6c-18.1,0-32.8-14.7-32.8-32.8s14.7-32.8,32.8-32.8h151.6c78.1,0,141.7-63.6,141.7-141.7v-151.6c0-18.1,14.7-32.8,32.8-32.8s32.8,14.7,32.8,32.8v151.6c0,114.3-93,207.4-207.4,207.4h0Z"/>
          </g>
        </g>
      </g>
    </g>
  </g>
</svg>